<svg viewBox="0 0 2025 1244" xmlns="http://www.w3.org/2000/svg" width="2025" height="1244"><g fill="none"><g opacity=".529" stroke="#004f62"><path d="M1517.028 0l-133.92 191.747-149.31 213.817-147.72 211.058L833.283 978H2025c0-404.393-200.66-761.816-507.972-978z"/><path d="M835.266 978H383.373c0-89.577 26.454-172.815 71.886-242.638L835.265 978z"/><path d="M827.543 15.01c-28.423 0-56.484 1.172-84.144 3.922l1.976 20.92 22.545 238.284 22.116 233.932 2.337 22.887v1.984c.8 8.658 1.573 17.73 2.407 26.424L834.266 978l252.797-361.378 147.718-211.058 149.313-213.817C1226.86 80.483 1034.917 15.01 827.543 15.01zM785.39 540.955v1.984c-.397-.8-.397-1.2-.397-1.985h.396z"/><path d="M795.78 564.364c-.834-8.693-1.607-17.766-2.407-26.425-.396-.8-.396-1.2-.396-1.985-.367-7.89-1.14-15.377-1.94-22.887L768.92 279.136C546.12 297.668 352.977 419.97 238 597.494l217.26 138.868L835.265 979 795.78 564.364zM736.018 23.378l.397 1.554h-.397v-1.554z"/></g><g opacity=".478" stroke="#005062"><path d="M1391.005 182L1245.48 390.216l-162.253 232.182-160.52 229.186L648 1244h1295c0-439.126-218.05-827.248-551.995-1062z"/><path d="M650.114 1244H159.06c0-97.27 28.745-187.658 78.114-263.478L650.114 1244z"/><path d="M641.39 198.3c-30.887 0-61.38 1.272-91.438 4.258l2.15 22.717 24.498 258.75 23.66 254.024 2.538 24.852v2.154c.87 9.404 1.71 19.255 2.617 28.695l43.28 450.25L923.4 851.584l160.52-229.186 162.252-232.182C1075.312 269.396 866.735 198.3 641.39 198.3zM593.288 769.418v2.154c-.43-.87-.43-1.304-.43-2.154h.43z"/><path d="M606.12 793.75c-.907-9.44-1.746-19.29-2.616-28.694-.43-.87-.43-1.303-.43-2.154-.4-8.566-1.238-16.698-2.11-24.853l-24.03-254.025C334.82 504.148 124.94 636.955 0 829.727l236.088 150.795L649.028 1244 606.12 793.75zM540.092 207.386l.43 1.688h-.43v-1.688z"/></g></g></svg>