<svg viewBox="0 0 162 86" xmlns="http://www.w3.org/2000/svg" width="162" height="86"><path d="M104.567 0l-8.165 11.673-9.104 13.016-9.007 12.847-15.412 22h72.661c0-24.62-12.234-46.377-30.97-59.537z" fill="#19345e"/><path d="M63.73 59.536H36.178c0-5.453 1.613-10.52 4.383-14.77l23.17 14.77z" fill="#0ba4a8"/><path d="M63.32.914c-1.733 0-3.444.07-5.13.24l.12 1.272 1.375 14.506 1.348 14.24.143 1.393v.12c.05.528.096 1.08.147 1.61l2.407 25.24 15.414-21.998L88.15 24.69l9.104-13.017C87.668 4.9 75.964.913 63.32.913z" fill="#005477"/><path d="M60.18 31.172l.143 1.393H60.3c-.023-.48-.07-.936-.12-1.393zM60.323 32.566v.12c-.024-.048-.024-.073-.024-.12h.023z" fill="#231f20"/><path d="M61.323 34.295c-.05-.53-.098-1.082-.147-1.61-.024-.047-.024-.072-.024-.12-.023-.48-.07-.936-.12-1.393l-1.347-14.24c-13.585 1.128-25.36 8.573-32.37 19.38l13.245 8.453 23.17 14.77-2.407-25.24z" fill="#00798c"/><path d="M57.313 1.058l.024.095h-.024v-.095z" fill="#231f20"/><path d="M57.337 1.153l.12 1.273c-.048-.433-.095-.864-.144-1.274h.024z" fill="#231f20"/><g fill="#b6bdc3"><path d="M7.236 77.098c-.307-1.115-1.28-1.637-2.183-1.637-.903 0-1.426.45-1.426.954 0 .828 1.263 1.135 2.796 1.693 1.877.683 3.844 1.745 3.844 3.903 0 2.303-1.985 3.94-4.926 3.94-2.633 0-4.51-1.457-5.34-3.814l2.905-.773c.325.953 1.227 1.906 2.563 1.906 1.082 0 1.587-.505 1.587-1.115 0-1.008-1.48-1.26-3.284-1.944-1.514-.575-3.265-1.403-3.265-3.616 0-1.96 1.986-3.74 4.728-3.74 2.417 0 4.33 1.474 4.926 3.453l-2.924.79zM30.438 82.874V85.7h-9.292V73.103h9.183v2.825h-6.153v2.068h4.817v2.645h-4.817v2.23h6.26zM76.012 73.104L71.158 85.7h-3.265L63.04 73.103h3.32l2.435 6.945c.487 1.403.703 2.302.722 2.302h.018c.017 0 .234-.9.72-2.303l2.437-6.946h3.32zM95.55 82.874V85.7h-9.29V73.103h9.183v2.825H89.29v2.068h4.818v2.645H89.29v2.23h6.26zM118.573 73.104V85.7h-2.85l-2.58-3.51c-1.156-1.584-2.85-3.976-2.87-3.976h-.018c-.018 0 .018 1.943.018 4.695v2.79h-3.03V73.103h2.85l2.69 3.6c.81 1.08 2.74 3.795 2.76 3.795h.016c.018 0-.018-2.232-.018-4.517v-2.88h3.03zM138.69 77.008c-.578-.72-1.66-1.168-2.653-1.168-2.093 0-3.392 1.492-3.392 3.56 0 2.178 1.425 3.528 3.392 3.528 1.208 0 2.363-.612 2.886-1.475l3.068.79c-1.046 2.23-3.3 3.707-5.953 3.707-3.627 0-6.55-2.752-6.55-6.55 0-3.795 2.923-6.547 6.55-6.547 2.49 0 4.62 1.33 5.737 3.346l-3.085.808zM162 82.874V85.7h-9.29V73.103h9.183v2.825h-6.154v2.068h4.817v2.645h-4.817v2.23H162zM53.93 79.35c0-3.794-2.942-6.547-6.57-6.547-3.626 0-6.548 2.752-6.548 6.548 0 3.05 1.896 5.408 4.51 6.217.644.17 1.906.397 3.325.157l-2.105-2.903c-1.572-.34-2.573-1.662-2.573-3.47 0-2.12 1.352-3.56 3.39-3.56 2.058 0 3.41 1.44 3.41 3.56 0 .863-.232 1.61-.644 2.194l-.52-.708h-3.64L49.724 86H53.4l-1.434-1.952c1.208-1.158 1.963-2.79 1.963-4.697z"/></g></svg>